<svg 
 xmlns="http://www.w3.org/2000/svg"
 xmlns:xlink="http://www.w3.org/1999/xlink"
 width="26px" height="24px">
<path fill-rule="evenodd"  fill="rgb(239, 91, 112)"
 d="M25.918,6.260 L21.526,16.532 C21.365,16.891 21.029,17.119 20.644,17.119 L8.575,17.119 C8.142,17.119 7.757,16.825 7.645,16.402 L3.718,1.956 L0.961,1.956 C0.433,1.956 -0.000,1.516 -0.000,0.978 C-0.000,0.440 0.433,-0.001 0.961,-0.001 L4.440,-0.001 C4.872,-0.001 5.257,0.293 5.369,0.717 L9.296,15.162 L20.003,15.162 L23.561,6.847 L11.700,6.847 C11.171,6.847 10.739,6.407 10.739,5.869 C10.739,5.331 11.171,4.891 11.700,4.891 L25.036,4.891 C25.357,4.891 25.661,5.054 25.837,5.331 C26.014,5.608 26.046,5.951 25.918,6.260 ZM7.661,19.565 C8.863,19.565 9.841,20.560 9.841,21.782 C9.841,23.005 8.863,23.999 7.661,23.999 C6.459,23.999 5.481,23.005 5.481,21.782 C5.481,20.559 6.459,19.565 7.661,19.565 ZM21.141,19.565 C22.343,19.483 23.385,20.412 23.465,21.619 C23.497,22.222 23.321,22.793 22.936,23.233 C22.552,23.690 22.023,23.951 21.446,23.999 C21.398,23.999 21.334,23.999 21.285,23.999 C20.147,23.999 19.202,23.086 19.121,21.929 C19.041,20.722 19.939,19.646 21.141,19.565 Z"/>
</svg>