<svg id="Слой_1" data-name="Слой 1" xmlns="http://www.w3.org/2000/svg" viewBox="0 0 512 512"><defs><style>.cls-1{fill:#606060;}</style></defs><path class="cls-1" d="M505,442.7,405.3,343a23.98206,23.98206,0,0,0-17-7H372a206.98259,206.98259,0,0,0,44-128C416,93.1,322.9,0,208,0S0,93.1,0,208,93.1,416,208,416a206.98259,206.98259,0,0,0,128-44v16.3a23.98206,23.98206,0,0,0,7,17L442.7,505a23.901,23.901,0,0,0,33.9,0l28.3-28.3A24.11255,24.11255,0,0,0,505,442.7ZM208,336A128,128,0,1,1,336,208,127.92639,127.92639,0,0,1,208,336Z"/></svg>